# xmcd CD database file
#
# Track frame offsets:
#	150
#	17188
#	37858
#	55576
#	71681
#	92299
#	116027
#	127864
#	148543
#	165784
#	185412
#	202780
#	220018
#
# Disc length: 3128 seconds
#
# Revision: 0
# Processed by: cddbd v1.5.2PL0 Copyright (c) Steve Scherf et al.
# Submitted via: CDex 1.70beta2
#
DISCID=9d0c360d
DTITLE=Family Underground - Once In A Lifetime
DYEAR=1975
DGENRE=R&B/Soul/Funk
TTITLE0=We Are Somebody
TTITLE1=I Don't Know Why
TTITLE2=Dr.Music
TTITLE3=For The Love of Disco
TTITLE4=All We Need is Love
TTITLE5=There Must Be An Answe
TTITLE6=All We Have is a Song
TTITLE7=Nowhere to Run
TTITLE8=Our Love's Gone By
TTITLE9=There Must Be Answer 75 1st Mix
TTITLE10=I Don't Know Why 75 1st Mix
TTITLE11=Superstitious
TTITLE12=Make A Change
EXTD=YEAR: 1975
EXTT0=
EXTT1=
EXTT2=
EXTT3=
EXTT4=
EXTT5=
EXTT6=
EXTT7=
EXTT8=
EXTT9=
EXTT10=
EXTT11=
EXTT12=
PLAYORDER=
